<?xml version="1.0" encoding="UTF-8"?>
<svg width="10px" height="18px" viewBox="0 0 10 18" version="1.1" xmlns="http://www.w3.org/2000/svg" xmlns:xlink="http://www.w3.org/1999/xlink">
    <!-- Generator: Sketch 49 (51002) - http://www.bohemiancoding.com/sketch -->
    <title>fb</title>
    <desc>Created with Sketch.</desc>
    <defs></defs>
    <g id="Page-1" stroke="none" stroke-width="1" fill="none" fill-rule="evenodd">
        <g id="Home" transform="translate(-498.000000, -3638.000000)" fill="#FFFFFE">
            <g id="footer" transform="translate(0.000000, 3336.000000)">
                <path class="hcc-fb" d="M507.344688,312.048551 L507.862994,308.815536 L504.621019,308.815536 L504.621019,306.717515 C504.621019,305.832992 505.073864,304.9709 506.525979,304.9709 L508,304.9709 L508,302.21848 C508,302.21848 506.662281,302 505.383298,302 C502.713177,302 500.968025,303.548359 500.968025,306.351461 L500.968025,308.815536 L498,308.815536 L498,312.048551 L500.968025,312.048551 L500.968025,319.86407 C501.563193,319.953424 502.173157,320 502.794522,320 C503.415887,320 504.025851,319.953424 504.621019,319.86407 L504.621019,312.048551 L507.344688,312.048551" id="fb"></path>
            </g>
        </g>
    </g>
</svg>