<?xml version="1.0" encoding="UTF-8"?>
<svg width="10px" height="15px" viewBox="0 0 10 15" version="1.1" xmlns="http://www.w3.org/2000/svg" xmlns:xlink="http://www.w3.org/1999/xlink">
    <!-- Generator: Sketch 49 (51002) - http://www.bohemiancoding.com/sketch -->
    <title>Shape</title>
    <desc>Created with Sketch.</desc>
    <defs></defs>
    <g id="Page-1" stroke="none" stroke-width="1" fill="none" fill-rule="evenodd">
        <g id="Home" transform="translate(-428.000000, -3486.000000)" fill="#FFFFFF" fill-rule="nonzero">
            <g id="footer" transform="translate(0.000000, 3336.000000)">
                <path d="M438,155.304878 C438,154.467073 437.817857,153.676829 437.489286,152.970732 C436.903214,151.70122 435.853571,150.717073 434.571429,150.270732 C434.078571,150.095122 433.55,150 433,150 C431.460714,150 430.082143,150.739024 429.167857,151.902439 C428.439286,152.820732 428,154.009756 428,155.304878 C428,156.142683 428.185714,156.932927 428.514286,157.639024 C428.596429,157.825976 428.692857,158.004878 428.8,158.180122 L428.796429,158.180122 C428.796429,158.180122 429.810714,159.702073 430.817857,161.085 C430.971429,161.297195 431.125,161.505732 431.275,161.706951 C432.253571,163.005732 432.539286,164.117927 432.621429,164.656098 C432.653571,164.853659 432.810714,165 433,165 C433.188929,165 433.346786,164.853659 433.378929,164.656463 C433.460714,164.118293 433.746429,163.006098 434.725,161.707317 C435.857143,160.204024 437.203214,158.180122 437.203214,158.180122 L437.199643,158.180122 C437.703571,157.35 438,156.365854 438,155.304878 Z M433,157 C431.894545,157 431,156.105455 431,155 C431,154.516364 431.170909,154.072727 431.458182,153.727273 C431.821818,153.283636 432.378182,153 433,153 C434.105455,153 435,153.894545 435,155 C435,155.483636 434.828727,155.927273 434.541818,156.272727 C434.178182,156.716364 433.621818,157 433,157 Z" id="Shape"></path>
            </g>
        </g>
    </g>
</svg>