<svg version="1.1" x="0px" y="0px"
	 width="1080px" height="500px" viewBox="0 0 1080 500" enable-background="new 0 0 1080 500" xml:space="preserve">
<g>
	<path class="hcc-logo-font" d="M275.776,276.371c-3.448,9.135-15.341,30.678-47.399,30.678c-39.298,0-62.738-24.822-67.566-51.877
		c-8.273-46.883,28.612-77.906,72.564-70.671c23.612,3.969,17.754-7.235,25.337-8.788c5.86-1.035,7.583,2.76,8.791,9.996
		c1.377,7.586,4.825,26.03,6.203,33.438c0.863,5.343-1.033,8.443-5.516,8.271c-8.788-0.345-11.204-25.846-35.851-28.262
		c-24.302-2.415-37.746,18.267-35.678,43.607c2.07,23.097,12.756,41.708,37.403,42.916c30.163,1.553,32.576-25.852,42.226-18.957
		C278.706,268.441,277.499,271.887,275.776,276.371z"/>
	<path class="hcc-logo-font" d="M387.653,300.332c-0.345,3.617-2.757,5.164-8.101,5.164c-0.345,0-32.748,0-33.093,0c-5.343,0-7.756-1.547-8.101-5.164
		c-0.172-3.105,1.033-5.35,5.688-11.549c3.1-4.312,3.272-9.996,3.272-22.062v-1.725c0-11.895,0.172-27.066-12.236-27.066
		c-7.755,0-11.721,6.039-11.721,16.552c0,4.135,0,8.271,0,12.238c0,12.066,0.172,17.75,3.275,22.062
		c4.48,6.199,5.86,8.443,5.515,11.549c-0.172,3.617-2.585,5.164-7.928,5.164c-0.345,0-32.92,0-33.093,0
		c-5.343,0-7.756-1.547-8.101-5.164c-0.173-3.105,1.032-5.35,5.516-11.549c3.103-4.312,3.445-9.996,3.445-21.889v-36.199
		c0-12.066-0.342-17.749-3.445-22.062c-4.483-6.206-5.688-8.443-5.516-11.549c0.345-3.617,2.758-5.86,8.101-7.58
		c5.17-1.726,15.339-4.659,17.234-5.349c9.999-2.755,14.997,1.898,14.997,11.721c0,3.105,0,17.409,0,34.646
		c5.86-5.688,14.134-10.858,24.992-10.858c22.579,0,30.335,15.172,30.335,28.439c0,2.927,0,10.169,0,18.617
		c0,12.066,0.173,17.75,3.275,22.062C386.445,294.982,387.825,297.227,387.653,300.332z"/>
	<path class="hcc-logo-font" d="M442.305,300.332c-0.345,3.617-2.758,5.164-7.928,5.164c-0.345,0-32.92,0-33.265,0c-5.343,0-7.756-1.547-7.929-5.164
		c-0.345-3.105,1.032-5.35,5.516-11.549c3.103-4.312,3.275-9.996,3.275-22.062c0-11.893-0.173-17.585-3.275-21.888
		c-4.483-6.211-5.86-8.449-5.516-11.549c0.173-3.623,2.758-5.866,7.929-7.586c5.343-1.72,15.511-4.825,17.409-5.343
		c9.823-2.761,14.994,1.898,14.994,11.548c0,4.136,0,19.302,0,34.818c0,12.066,0.173,17.75,3.275,22.062
		C441.27,294.982,442.477,297.227,442.305,300.332z M395.768,194.324c0-9.823,8.791-17.748,19.477-17.748
		c10.858,0,19.649,7.925,19.649,17.748c0,10.002-8.791,17.933-19.649,17.933C404.559,212.257,395.768,204.326,395.768,194.324z"/>
	<path class="hcc-logo-font" d="M477.471,263.961c4.825,25.857,31.025,28.957,46.191,14.826c4.998-4.658,9.654-1.035,6.896,5.338
		c-5.171,11.721-17.927,22.924-38.094,22.924c-23.957,0-44.639-13.445-46.364-41.189c-1.723-27.583,19.822-46.195,45.677-46.195
		c28.955,0,47.227,20.336,36.711,36.199c-5.686,8.615-22.577,8.615-25.508-4.314c-2.758-12.41-7.586-17.576-15.859-16.201
		C479.021,236.729,474.541,248.104,477.471,263.961z"/>
	<path class="hcc-logo-font" d="M643.119,300.332c-0.172,3.617-2.758,5.164-7.928,5.164c-1.205,0-29.127,0-31.025,0c-7.928,0-12.236-1.207-11.549-6.717
		c0.69-5.693,6.033-6.033,3.448-11.377c-1.378-2.932-1.723-3.623-8.618-14.48l-4.652-7.236l-5.516,5.172
		c0,9.305,0.518,14.131,3.275,17.926c4.479,6.199,5.688,8.443,5.515,11.549c-0.172,3.617-2.757,5.164-7.928,5.164
		c-0.345,0-32.921,0-33.266,0c-5.343,0-7.756-1.547-7.928-5.164c-0.173-3.105,1.032-5.35,5.515-11.549
		c3.104-4.312,3.275-9.996,3.275-22.062v-36.025c0-12.066-0.172-17.749-3.275-22.062c-4.482-6.206-5.688-8.443-5.515-11.549
		c0.172-3.617,2.757-5.86,7.928-7.58c5.343-1.726,15.511-4.659,17.409-5.349c9.823-2.755,14.994,1.898,14.994,11.721
		c0,4.313,0,31.022,0,57.052l10.686-10.513c9.309-9.133,4.998-11.203,5.343-16.546c0.173-2.582,1.553-4.825,7.413-4.825
		c4.309,0,21.89,0,23.612,0c4.653,0,6.894,1.898,6.894,4.825c0,8.449-13.786,8.103-26.888,19.307l-0.345,0.519l14.306,21.025
		c7.583,10.686,12.239,17.922,16.72,22.234C640.707,294.121,643.292,296.535,643.119,300.332z"/>
	<path class="hcc-logo-font" d="M726.039,285.332c-5.171,11.721-16.892,21.717-37.229,21.717c-23.96,0-47.744-13.619-48.779-42.57
		c-0.859-29.642,22.062-45.849,47.917-44.814c25.337,0.69,37.4,18.266,38.781,32.402c1.204,11.549-0.863,16.035-11.895,16.035
		c-8.445,0-42.57,0-42.57,0c4.135,22.062,32.92,25.502,46.881,11.889C724.144,275.164,728.97,278.961,726.039,285.332z
		 M672.437,249.307c-0.518,1.898,0.343,3.623,1.896,3.623c4.135,0,17.064,0,20.167,0c4.135,0,6.03-2.933,4.652-8.097
		c-1.208-5.004-4.138-12.066-13.788-11.203C677.607,234.147,673.986,242.072,672.437,249.307z"/>
	<path class="hcc-logo-font" d="M838.776,300.332c-0.346,3.617-2.758,5.164-8.102,5.164c-0.345,0-32.748,0-33.093,0c-5.343,0-7.759-1.547-8.101-5.164
		c-0.173-3.105,1.205-5.35,5.688-11.549c3.101-4.312,3.273-9.996,3.273-22.062v-1.725c0-11.895,0.172-27.066-12.236-27.066
		c-7.756,0-11.721,6.039-11.721,16.552c0,3.963,0,8.098,0,12.238c0,12.066,0.172,17.75,3.275,22.062
		c4.479,6.199,5.86,8.443,5.516,11.549c-0.173,3.617-2.586,5.164-7.929,5.164c-0.345,0-32.921,0-33.093,0
		c-5.344,0-7.756-1.547-8.101-5.164c-0.173-3.105,1.032-5.35,5.515-11.549c3.104-4.312,3.445-9.996,3.445-21.545
		c0-11.721-0.342-18.103-3.445-22.406c-4.482-6.211-5.688-8.449-5.515-11.549c0.345-3.623,2.757-5.866,8.101-7.586
		c5.17-1.72,15.338-4.825,17.236-5.343c9.479-2.588,14.477,1.553,14.994,10.341c5.86-5.861,14.133-11.031,24.992-11.031
		c22.579,0,30.335,15.172,30.335,28.439c0,2.927,0,10.169,0,18.617c0,12.066,0.173,17.75,3.275,22.062
		C837.567,294.982,838.948,297.227,838.776,300.332z"/>
</g>
<g>
	<path class="hcc-logo-font" d="M601.426,402.152c-2.734,7.242-12.167,24.328-37.588,24.328c-31.166,0-49.754-19.68-53.582-41.145
		c-6.559-37.176,22.691-61.781,57.545-56.035c18.727,3.141,14.079-5.746,20.092-6.977c4.647-0.816,6.014,2.191,6.971,7.932
		c1.093,6.016,3.828,20.641,4.92,26.514c0.685,4.238-0.819,6.699-4.373,6.562c-6.971-0.271-8.883-20.504-28.429-22.414
		c-19.272-1.914-29.936,14.488-28.294,34.578c1.639,18.316,10.113,33.08,29.66,34.035c23.919,1.23,25.834-20.502,33.486-15.033
		C603.749,395.861,602.791,398.598,601.426,402.152z"/>
	<path class="hcc-logo-font" d="M690.128,421.148c-0.273,2.871-2.188,4.102-6.425,4.102c-0.272,0-25.97,0-26.242,0c-4.239,0-6.151-1.23-6.425-4.102
		c-0.138-2.461,0.819-4.238,4.509-9.154c2.462-3.418,2.598-7.932,2.598-17.496v-1.369c0-9.432,0.138-21.457-9.703-21.457
		c-6.15,0-9.297,4.783-9.297,13.117c0,3.285,0,6.562,0,9.709c0,9.564,0.139,14.078,2.6,17.496c3.552,4.916,4.646,6.693,4.374,9.154
		c-0.138,2.871-2.051,4.102-6.289,4.102c-0.273,0-26.105,0-26.243,0c-4.236,0-6.151-1.23-6.424-4.102
		c-0.136-2.461,0.819-4.238,4.373-9.154c2.462-3.418,2.735-7.932,2.735-17.363v-28.699c0-9.57-0.273-14.08-2.735-17.496
		c-3.554-4.924-4.509-6.699-4.373-9.162c0.272-2.869,2.188-4.646,6.424-6.01c4.101-1.369,12.164-3.691,13.668-4.238
		c7.928-2.186,11.891,1.5,11.891,9.293c0,2.463,0,13.805,0,27.475c4.65-4.51,11.209-8.609,19.822-8.609
		c17.903,0,24.055,12.025,24.055,22.551c0,2.324,0,8.062,0,14.764c0,9.564,0.138,14.078,2.597,17.496
		C689.17,416.91,690.263,418.688,690.128,421.148z"/>
	<path class="hcc-logo-font" d="M767.482,391.76c0,21.326-14.487,34.721-37.179,34.721c-22.824,0-37.314-13.395-37.314-34.721
		c0-21.32,14.49-34.576,37.314-34.576C752.995,357.184,767.482,370.439,767.482,391.76z M742.06,391.76
		c0-12.434-3.963-21.596-11.756-21.596c-7.926,0-11.891,9.162-11.891,21.596c0,12.441,3.965,21.734,11.891,21.734
		C738.097,413.494,742.06,404.201,742.06,391.76z"/>
	<path class="hcc-logo-font" d="M850.583,391.76c-0.138,20.504-12.167,35.268-31.848,34.721c-6.836-0.275-12.302-2.732-16.402-6.424
		c0,1.369,0,2.869,0,4.371c0,9.432,0,14.764,2.597,17.363c3.827,4.1,5.742,6.557,5.331,9.156c-0.411,2.869-2.188,4.1-6.286,4.1
		c-0.685,0-27.065,0-27.339,0c-4.101,0-6.013-1.23-6.286-4.1c-0.138-2.463,0.819-4.238,4.374-9.156
		c2.459-3.416,2.597-7.932,2.597-17.363v-29.93c0-9.432-0.138-13.941-2.597-17.363c-3.555-4.918-4.512-6.695-4.374-9.156
		c0.273-2.869,2.186-4.646,6.286-6.01c4.238-1.369,12.303-3.83,13.807-4.238c6.697-1.916,10.524,0.545,11.617,6.01
		c4.238-3.824,9.567-6.424,16.676-6.557C838.416,356.498,850.445,371.262,850.583,391.76z M825.159,391.76
		c0-12.025-4.238-20.773-12.574-20.773c-8.475,0-12.711,8.748-12.711,20.773c0,12.031,4.236,20.779,12.711,20.779
		C820.921,412.539,825.159,403.791,825.159,391.76z"/>
</g>
<g>
	<path class="hcc-logo-font" d="M247.163,151.303c3.028,4.199,3.963,5.711,3.845,7.811c-0.233,2.45-1.863,3.497-5.478,3.497c-0.233,0-22.959,0-23.195,0
		c-3.612,0-5.242-1.047-5.476-3.497c-0.118-2.099,0.814-3.612,3.845-7.811c2.099-2.916,2.214-6.757,2.214-14.918v-9.907h-28.438
		v9.907c0,8.161,0.115,12.003,2.214,14.918c3.028,4.199,3.962,5.711,3.845,7.811c-0.233,2.45-1.864,3.497-5.478,3.497
		c-0.233,0-22.959,0-23.195,0c-3.612,0-5.242-1.047-5.478-3.497c-0.115-2.099,0.817-3.612,3.848-7.811
		c2.099-2.916,2.214-6.757,2.214-14.918v-29.136c0-8.043-0.115-11.891-2.214-14.919c-3.031-4.196-3.962-5.596-3.848-7.692
		c0.236-2.45,1.866-3.615,5.478-3.615c0.236,0,22.962,0,23.195,0c3.614,0,5.245,1.165,5.478,3.615
		c0.118,2.096-0.817,3.497-3.845,7.692c-2.099,3.028-2.214,6.875-2.214,14.919v8.273h28.438v-8.273
		c0-8.043-0.115-11.891-2.214-14.919c-3.031-4.196-3.963-5.596-3.845-7.692c0.233-2.45,1.864-3.615,5.476-3.615
		c0.236,0,22.962,0,23.195,0c3.615,0,5.245,1.165,5.478,3.615c0.118,2.096-0.816,3.497-3.845,7.692
		c-2.099,3.028-2.214,6.875-2.214,14.919v29.136C244.949,144.546,245.064,148.388,247.163,151.303z"/>
	<path class="hcc-logo-font" d="M319.296,134.055c0,18.186-12.354,29.602-31.704,29.602c-19.462,0-31.819-11.417-31.819-29.602
		c0-18.183,12.356-29.49,31.819-29.49C306.942,104.565,319.296,115.873,319.296,134.055z M297.616,134.055
		c0-10.605-3.379-18.416-10.024-18.416c-6.758,0-10.14,7.81-10.14,18.416s3.382,18.531,10.14,18.531
		C294.237,152.586,297.616,144.661,297.616,134.055z"/>
	<path class="hcc-logo-font" d="M347.958,163.657c-9.208,0-19-4.543-19-19.698c0-8.621,0-22.841,0-28.319h-3.962c-2.562,0-4.543-1.981-4.543-4.546v-1.05
		c0-2.447,1.981-4.543,4.543-4.543h2.332c10.257,0,5.36-14.105,13.521-14.105c1.631,0,4.196,0,4.662,0
		c3.845,0,4.662,1.866,4.662,5.478c0,1.05,0,4.432,0,8.627h9.674c2.447,0,4.546,2.097,4.546,4.543v1.05
		c0,2.565-2.099,4.546-4.546,4.546h-9.674c0,6.761,0,27.503,0,27.503c0,6.297,5.012,7.925,10.49,4.9
		c1.981-1.047,4.081-1.283,5.36,0.23C369.985,152.937,360.895,163.657,347.958,163.657z"/>
</g>
<path id="hcc-logo-chicken" fill="#FF3636" d="M891.504,156.32c1.322-11.451,12.948-17.622,26.962-16.736c0,0-6.514-8.104-17.481-15.891
	c4.955-4.014,8.483-8.362,7.324-12.129c-3.188-10.341-13.763-4.699-13.763-4.699s10.867-7.436,3.658-19.197
	c-7.207-11.762-19.988-0.995-19.437,5.4c0,0-4.268-13.826-13.881-13.832c-1.041,0-2.14,0.167-3.304,0.529
	c-11.949,3.675-8.279,15.488-8.279,15.488s-6.073-8.949-13.562-3.439c-7.485,5.51-2.962,11.894-2.962,11.894
	s-13.421-1.714-15.848,16.259c0,0,20.803-17.403,47.568-10.283c0.97,0.259,1.869,0.546,2.74,0.834
	c-0.945-0.172-1.897-0.328-2.855-0.454c-29.526-3.969-48.472,13.653-55.08,29.521c-6.607,15.862-24.678,22.914-29.084,23.788
	c-4.408,0.892,3.525,7.942,14.103,6.177c0,0-9.254,9.691-12.779,18.502c-3.522,8.817,20.272-8.368,29.964-12.779
	c0,0,1.763,12.779,12.34,22.919c10.57,10.128,9.693,0,9.693,0s16.742,29.125,21.591,23.154c1.739-2.15,2.452-3.52,2.657-4.399
	c3.166,5.285,14.557,22.085,31.27,21.343c19.827-0.881-3.525-0.438-6.611-39.218c0,0,1.32,13.216,12.779,20.268
	c11.459,7.051,29.961-5.286,16.308-25.553C901.87,173.516,890.178,167.782,891.504,156.32z M862.782,139.216
	c-4.464,0-8.081-3.624-8.081-8.086c0-4.458,3.617-8.081,8.081-8.081c4.465,0,8.08,3.623,8.08,8.081
	C870.862,135.592,867.247,139.216,862.782,139.216z"/>
</svg>