<?xml version="1.0" encoding="utf-8"?>
<!-- Generator: Adobe Illustrator 16.0.0, SVG Export Plug-In . SVG Version: 6.00 Build 0)  -->
<!DOCTYPE svg PUBLIC "-//W3C//DTD SVG 1.1//EN" "http://www.w3.org/Graphics/SVG/1.1/DTD/svg11.dtd">
<svg version="1.1" id="Layer_1" xmlns="http://www.w3.org/2000/svg" xmlns:xlink="http://www.w3.org/1999/xlink" x="0px" y="0px"
	 width="1017px" height="500px" viewBox="0 0 1017 500" enable-background="new 0 0 1017 500" xml:space="preserve">
<g>
	<path class="hcc-logo-font" d="M161.37,262.098c-4.539,12.027-20.198,40.392-62.407,40.392c-51.741,0-82.602-32.682-88.959-68.303
		c-10.893-61.728,37.672-102.572,95.54-93.047c31.088,5.226,23.376-9.525,33.36-11.57c7.716-1.363,9.984,3.634,11.574,13.16
		c1.813,9.988,6.354,34.272,8.167,44.025c1.136,7.036-1.36,11.116-7.262,10.89c-11.571-0.455-14.751-34.03-47.202-37.211
		c-31.997-3.18-49.697,24.05-46.975,57.414c2.726,30.411,16.795,54.915,49.246,56.504c39.714,2.045,42.89-34.037,55.596-24.959
		C165.228,251.658,163.638,256.194,161.37,262.098z"/>
	<path class="hcc-logo-font" d="M308.67,293.646c-0.455,4.763-3.63,6.798-10.666,6.798c-0.455,0-43.116,0-43.571,0c-7.035,0-10.211-2.035-10.666-6.798
		c-0.227-4.09,1.36-7.044,7.489-15.206c4.081-5.678,4.309-13.161,4.309-29.048v-2.271c0-15.661,0.227-35.636-16.11-35.636
		c-10.211,0-15.432,7.951-15.432,21.793c0,5.444,0,10.891,0,16.114c0,15.887,0.227,23.37,4.313,29.048
		c5.898,8.162,7.715,11.116,7.261,15.206c-0.227,4.763-3.403,6.798-10.439,6.798c-0.454,0-43.343,0-43.57,0
		c-7.035,0-10.212-2.035-10.666-6.798c-0.228-4.09,1.359-7.044,7.262-15.206c4.085-5.678,4.536-13.161,4.536-28.819v-47.66
		c0-15.887-0.451-23.368-4.536-29.047c-5.903-8.17-7.49-11.116-7.262-15.206c0.454-4.762,3.631-7.716,10.666-9.98
		c6.807-2.271,20.195-6.134,22.69-7.042c13.165-3.627,19.745,2.499,19.745,15.432c0,4.089,0,22.922,0,45.615
		c7.716-7.489,18.609-14.296,32.906-14.296c29.728,0,39.939,19.976,39.939,37.444c0,3.854,0,13.39,0,24.512
		c0,15.887,0.228,23.37,4.312,29.048C307.081,286.603,308.897,289.557,308.67,293.646z"/>
	<path class="hcc-logo-font" d="M380.626,293.646c-0.455,4.763-3.631,6.798-10.439,6.798c-0.454,0-43.344,0-43.797,0c-7.035,0-10.211-2.035-10.439-6.798
		c-0.454-4.09,1.358-7.044,7.262-15.206c4.084-5.678,4.312-13.161,4.312-29.048c0-15.658-0.228-23.153-4.312-28.818
		c-5.903-8.178-7.716-11.125-7.262-15.206c0.228-4.771,3.631-7.724,10.439-9.988c7.034-2.265,20.421-6.354,22.921-7.035
		c12.933-3.634,19.741,2.5,19.741,15.205c0,5.445,0,25.414,0,45.842c0,15.887,0.228,23.37,4.312,29.048
		C379.264,286.603,380.853,289.557,380.626,293.646z M319.355,154.074c0-12.934,11.574-23.368,25.644-23.368
		c14.296,0,25.87,10.434,25.87,23.368c0,13.168-11.574,23.61-25.87,23.61C330.929,177.684,319.355,167.242,319.355,154.074z"/>
	<path class="hcc-logo-font" d="M426.927,245.759c6.353,34.044,40.849,38.126,60.817,19.521c6.58-6.134,12.711-1.363,9.08,7.028
		c-6.809,15.432-23.604,30.182-50.156,30.182c-31.542,0-58.772-17.702-61.044-54.231c-2.268-36.317,26.098-60.821,60.139-60.821
		c38.124,0,62.18,26.775,48.334,47.661c-7.485,11.343-29.725,11.343-33.584-5.681c-3.631-16.338-9.988-23.141-20.88-21.33
		C428.967,209.905,423.069,224.881,426.927,245.759z"/>
	<path class="hcc-logo-font" d="M645.023,293.646c-0.226,4.763-3.63,6.798-10.438,6.798c-1.587,0-38.35,0-40.849,0c-10.438,0-16.11-1.589-15.206-8.844
		c0.909-7.495,7.944-7.942,4.541-14.978c-1.815-3.86-2.268-4.771-11.348-19.066l-6.125-9.527l-7.262,6.809
		c0,12.25,0.682,18.605,4.312,23.602c5.898,8.162,7.488,11.116,7.261,15.206c-0.227,4.763-3.63,6.798-10.438,6.798
		c-0.453,0-43.345,0-43.798,0c-7.035,0-10.212-2.035-10.438-6.798c-0.228-4.09,1.359-7.044,7.261-15.206
		c4.086-5.678,4.313-13.161,4.313-29.048v-47.432c0-15.887-0.227-23.368-4.313-29.047c-5.902-8.17-7.489-11.116-7.261-15.206
		c0.226-4.762,3.629-7.716,10.438-9.98c7.034-2.271,20.422-6.134,22.921-7.042c12.935-3.627,19.742,2.499,19.742,15.432
		c0,5.68,0,40.845,0,75.117l14.068-13.842c12.256-12.024,6.58-14.75,7.034-21.785c0.229-3.399,2.045-6.353,9.761-6.353
		c5.673,0,28.82,0,31.088,0c6.127,0,9.077,2.499,9.077,6.353c0,11.124-18.151,10.668-35.401,25.42l-0.454,0.683l18.836,27.682
		c9.983,14.068,16.114,23.597,22.014,29.274C641.847,285.469,645.25,288.646,645.023,293.646z"/>
	<path class="hcc-logo-font" d="M754.198,273.896c-6.808,15.432-22.24,28.593-49.016,28.593c-31.546,0-62.861-17.931-64.225-56.049
		c-1.131-39.028,29.048-60.366,63.089-59.003c33.359,0.909,49.242,24.049,51.061,42.661c1.586,15.206-1.137,21.112-15.66,21.112
		c-11.12,0-56.05,0-56.05,0c5.444,29.048,43.343,33.577,61.725,15.653C751.703,260.509,758.056,265.508,754.198,273.896z
		 M683.624,226.465c-0.682,2.5,0.452,4.77,2.496,4.77c5.443,0,22.467,0,26.552,0c5.444,0,7.94-3.862,6.125-10.661
		c-1.59-6.588-5.447-15.888-18.153-14.75C690.431,206.505,685.664,216.939,683.624,226.465z"/>
	<path class="hcc-logo-font" d="M902.63,293.646c-0.454,4.763-3.631,6.798-10.666,6.798c-0.454,0-43.118,0-43.571,0c-7.034,0-10.215-2.035-10.665-6.798
		c-0.229-4.09,1.586-7.044,7.488-15.206c4.082-5.678,4.31-13.161,4.31-29.048v-2.271c0-15.661,0.227-35.636-16.11-35.636
		c-10.212,0-15.433,7.951-15.433,21.793c0,5.218,0,10.662,0,16.114c0,15.887,0.227,23.37,4.312,29.048
		c5.898,8.162,7.716,11.116,7.262,15.206c-0.228,4.763-3.403,6.798-10.438,6.798c-0.454,0-43.345,0-43.57,0
		c-7.036,0-10.212-2.035-10.666-6.798c-0.228-4.09,1.359-7.044,7.261-15.206c4.086-5.678,4.536-13.161,4.536-28.367
		c0-15.431-0.45-23.834-4.536-29.5c-5.901-8.178-7.488-11.125-7.261-15.206c0.454-4.771,3.63-7.724,10.666-9.988
		c6.807-2.265,20.194-6.354,22.693-7.035c12.479-3.407,19.06,2.045,19.741,13.615c7.717-7.717,18.607-14.524,32.906-14.524
		c29.728,0,39.939,19.976,39.939,37.444c0,3.854,0,13.39,0,24.512c0,15.887,0.228,23.37,4.312,29.048
		C901.039,286.603,902.856,289.557,902.63,293.646z"/>
</g>
<g>
	<path class="hcc-logo-font" d="M590.128,427.705c-3.6,9.535-16.019,32.031-49.489,32.031c-41.033,0-65.506-25.91-70.546-54.172
		c-8.636-48.947,29.875-81.343,75.764-73.778c24.656,4.135,18.537-7.564,26.454-9.185c6.119-1.075,7.918,2.885,9.178,10.442
		c1.438,7.921,5.04,27.177,6.478,34.909c0.901,5.58-1.079,8.82-5.758,8.641c-9.178-0.358-11.695-26.997-37.43-29.512
		c-25.375-2.521-39.414,19.076-37.253,45.526c2.158,24.115,13.315,43.555,39.052,44.812c31.492,1.62,34.014-26.993,44.088-19.793
		C593.188,419.422,591.926,423.024,590.128,427.705z"/>
	<path class="hcc-logo-font" d="M706.917,452.716c-0.36,3.78-2.881,5.399-8.459,5.399c-0.359,0-34.192,0-34.551,0c-5.582,0-8.099-1.619-8.459-5.399
		c-0.182-3.241,1.078-5.58,5.936-12.053c3.241-4.5,3.421-10.443,3.421-23.036v-1.803c0-12.418,0.181-28.25-12.775-28.25
		c-8.098,0-12.241,6.297-12.241,17.27c0,4.326,0,8.641,0,12.783c0,12.593,0.183,18.536,3.423,23.036
		c4.676,6.473,6.118,8.812,5.759,12.053c-0.181,3.78-2.7,5.399-8.28,5.399c-0.36,0-34.371,0-34.552,0
		c-5.578,0-8.099-1.619-8.458-5.399c-0.18-3.241,1.078-5.58,5.758-12.053c3.241-4.5,3.601-10.443,3.601-22.86v-37.786
		c0-12.601-0.359-18.539-3.601-23.037c-4.68-6.482-5.938-8.82-5.758-12.062c0.359-3.777,2.88-6.117,8.458-7.913
		c5.398-1.802,16.015-4.859,17.995-5.58c10.438-2.877,15.655,1.975,15.655,12.235c0,3.243,0,18.176,0,36.174
		c6.123-5.937,14.759-11.336,26.099-11.336c23.572,0,31.671,15.834,31.671,29.692c0,3.059,0,10.614,0,19.438
		c0,12.593,0.181,18.536,3.419,23.036C705.655,447.136,707.093,449.475,706.917,452.716z"/>
	<path class="hcc-logo-font" d="M808.763,414.021c0,28.079-19.074,45.715-48.95,45.715c-30.052,0-49.129-17.636-49.129-45.715
		c0-28.07,19.077-45.524,49.129-45.524C789.689,368.497,808.763,385.951,808.763,414.021z M775.291,414.021
		c0-16.369-5.217-28.433-15.478-28.433c-10.436,0-15.655,12.063-15.655,28.433c0,16.382,5.22,28.616,15.655,28.616
		C770.074,442.638,775.291,430.403,775.291,414.021z"/>
	<path class="hcc-logo-font" d="M918.176,414.021c-0.183,26.996-16.021,46.435-41.932,45.715c-9.001-0.363-16.197-3.598-21.596-8.458
		c0,1.803,0,3.777,0,5.756c0,12.417,0,19.438,3.418,22.86c5.039,5.397,7.561,8.633,7.019,12.055
		c-0.541,3.777-2.88,5.397-8.275,5.397c-0.901,0-35.635,0-35.995,0c-5.399,0-7.917-1.62-8.277-5.397
		c-0.181-3.242,1.08-5.58,5.759-12.055c3.238-4.498,3.42-10.443,3.42-22.86v-39.407c0-12.417-0.182-18.355-3.42-22.861
		c-4.679-6.475-5.939-8.814-5.759-12.055c0.36-3.777,2.878-6.117,8.277-7.912c5.58-1.803,16.198-5.044,18.178-5.581
		c8.817-2.522,13.857,0.718,15.296,7.913c5.58-5.036,12.596-8.457,21.956-8.634C902.156,367.595,917.994,387.033,918.176,414.021z
		 M884.702,414.021c0-15.832-5.58-27.351-16.556-27.351c-11.157,0-16.734,11.519-16.734,27.351c0,15.841,5.577,27.358,16.734,27.358
		C879.122,441.38,884.702,429.862,884.702,414.021z"/>
</g>
<g>
	<path class="hcc-logo-font" d="M123.698,97.431c3.987,5.528,5.218,7.52,5.062,10.283c-0.306,3.225-2.453,4.604-7.212,4.604c-0.307,0-30.229,0-30.539,0
		c-4.755,0-6.902-1.379-7.209-4.604c-0.155-2.764,1.072-4.755,5.062-10.283c2.764-3.839,2.916-8.897,2.916-19.642V64.745H54.336
		v13.044c0,10.745,0.151,15.803,2.916,19.642c3.986,5.528,5.217,7.52,5.062,10.283c-0.307,3.225-2.454,4.604-7.213,4.604
		c-0.307,0-30.229,0-30.54,0c-4.755,0-6.902-1.379-7.212-4.604c-0.151-2.764,1.076-4.755,5.065-10.283
		c2.764-3.839,2.916-8.897,2.916-19.642V39.427c0-10.59-0.152-15.656-2.916-19.643c-3.99-5.524-5.217-7.368-5.065-10.128
		c0.311-3.226,2.457-4.759,7.212-4.759c0.31,0,30.232,0,30.54,0c4.759,0,6.906,1.534,7.213,4.759
		c0.155,2.76-1.076,4.604-5.062,10.128c-2.764,3.987-2.916,9.053-2.916,19.643V50.32h37.442V39.427
		c0-10.59-0.152-15.656-2.916-19.643c-3.991-5.524-5.217-7.368-5.062-10.128c0.308-3.226,2.454-4.759,7.209-4.759
		c0.31,0,30.232,0,30.539,0c4.759,0,6.906,1.534,7.212,4.759c0.156,2.76-1.075,4.604-5.062,10.128
		c-2.764,3.987-2.915,9.053-2.915,19.643v38.362C120.783,88.534,120.934,93.592,123.698,97.431z"/>
	<path class="hcc-logo-font" d="M218.669,74.722c0,23.943-16.265,38.975-41.742,38.975c-25.625,0-41.894-15.031-41.894-38.975
		c0-23.939,16.269-38.827,41.894-38.827C202.405,35.895,218.669,50.782,218.669,74.722z M190.125,74.722
		c0-13.963-4.449-24.247-13.198-24.247c-8.898,0-13.351,10.283-13.351,24.247s4.453,24.398,13.351,24.398
		C185.677,99.12,190.125,88.685,190.125,74.722z"/>
	<path class="hcc-logo-font" d="M256.406,113.696c-12.123,0-25.015-5.982-25.015-25.935c0-11.351,0-30.073,0-37.286h-5.217
		c-3.374,0-5.982-2.609-5.982-5.986v-1.382c0-3.222,2.608-5.982,5.982-5.982h3.07c13.505,0,7.058-18.571,17.802-18.571
		c2.147,0,5.524,0,6.137,0c5.062,0,6.138,2.457,6.138,7.212c0,1.382,0,5.835,0,11.359h12.737c3.222,0,5.984,2.76,5.984,5.982v1.382
		c0,3.377-2.763,5.986-5.984,5.986h-12.737c0,8.901,0,36.211,0,36.211c0,8.291,6.599,10.434,13.812,6.451
		c2.609-1.378,5.372-1.689,7.057,0.303C285.408,99.581,273.44,113.696,256.406,113.696z"/>
</g>
<path id="hcc-logo-chicken" fill="#FF9A1E" d="M972.053,104.036c1.74-15.077,17.048-23.201,35.498-22.036c0,0-8.576-10.669-23.016-20.921
	c6.523-5.286,11.169-11.01,9.643-15.97c-4.198-13.615-18.12-6.187-18.12-6.187s14.308-9.79,4.816-25.276
	c-9.489-15.485-26.317-1.31-25.591,7.111c0,0-5.618-18.204-18.275-18.212c-1.37,0-2.817,0.22-4.35,0.697
	c-15.733,4.838-10.901,20.392-10.901,20.392s-7.996-11.782-17.855-4.528c-9.855,7.254-3.899,15.659-3.899,15.659
	s-17.671-2.256-20.865,21.407c0,0,27.39-22.914,62.629-13.54c1.277,0.341,2.462,0.719,3.608,1.098
	c-1.245-0.227-2.498-0.431-3.76-0.598c-38.874-5.226-63.819,17.976-72.52,38.868c-8.699,20.885-32.491,30.169-38.293,31.32
	c-5.804,1.174,4.642,10.457,18.567,8.132c0,0-12.183,12.759-16.825,24.36c-4.638,11.608,26.691-11.018,39.451-16.826
	c0,0,2.321,16.826,16.248,30.176c13.916,13.334,12.762,0,12.762,0s22.043,38.346,28.427,30.485c2.29-2.832,3.229-4.634,3.499-5.792
	c4.168,6.958,19.166,29.078,41.17,28.102c26.104-1.16-4.641-0.576-8.704-51.636c0,0,1.737,17.4,16.825,26.685
	c15.087,9.283,39.447-6.959,21.471-33.644C985.701,126.677,970.306,119.128,972.053,104.036z M934.237,81.516
	c-5.877,0-10.639-4.771-10.639-10.646c0-5.869,4.762-10.64,10.639-10.64c5.879,0,10.639,4.771,10.639,10.64
	C944.875,76.745,940.116,81.516,934.237,81.516z"/>
</svg>
