<?xml version="1.0" encoding="utf-8"?>
<!-- Generator: Adobe Illustrator 16.0.0, SVG Export Plug-In . SVG Version: 6.00 Build 0)  -->
<!DOCTYPE svg PUBLIC "-//W3C//DTD SVG 1.1//EN" "http://www.w3.org/Graphics/SVG/1.1/DTD/svg11.dtd">
<svg version="1.1" id="Layer_1" xmlns="http://www.w3.org/2000/svg" xmlns:xlink="http://www.w3.org/1999/xlink" x="0px" y="0px"
	 width="1080px" height="196px" viewBox="0 0 1080 196" enable-background="new 0 0 1080 196" xml:space="preserve">
<g>
	<g>
		<path d="M116.32,133.56c0,7.432-0.443,12.66-1.33,15.682c-0.889,3.021-2.411,5.635-4.569,7.842
			c-3.069,3.309-7.002,5.756-11.797,7.338c-4.797,1.582-10.624,2.373-17.481,2.373c-11.463,0-20.168-1.822-26.114-5.467
			c-5.947-3.645-9.184-9.184-9.711-16.617h22.517c0.336,2.732,1.583,4.748,3.741,6.043s5.347,1.941,9.567,1.941
			c5.562,0,9.579-1.438,12.05-4.316c2.47-2.877,3.704-7.674,3.704-14.387v-10.072c-2.732,4.365-6.031,7.602-9.891,9.713
			c-3.861,2.109-8.43,3.164-13.704,3.164c-9.688,0-17.435-3.393-23.236-10.18c-5.804-6.784-8.705-15.934-8.705-27.443
			c0-11.701,2.83-20.863,8.488-27.481c5.659-6.618,13.477-9.927,23.453-9.927c5.131,0,9.699,1.186,13.704,3.561
			c4.003,2.373,7.349,5.862,10.034,10.467V64.139h19.28V133.56z M97.76,99.315c0-6.232-1.582-11.15-4.747-14.748
			c-3.165-3.596-7.481-5.395-12.949-5.395c-5.611,0-9.999,1.789-13.165,5.361c-3.165,3.572-4.748,8.5-4.748,14.781
			c0,6.285,1.559,11.176,4.677,14.676c3.116,3.502,7.481,5.252,13.093,5.252s9.986-1.75,13.129-5.252
			C96.188,110.491,97.76,105.601,97.76,99.315z"/>
		<path d="M207.25,134.71h-19.855l0.289-10.143c-2.782,4.459-6.128,7.732-10.036,9.819c-3.909,2.085-8.668,3.128-14.279,3.128
			c-9.353,0-16.895-3.477-22.625-10.43c-5.731-6.953-8.597-16.139-8.597-27.553c0-11.895,2.817-21.161,8.453-27.805
			c5.635-6.643,13.463-9.963,23.488-9.963c5.226,0,9.819,1.175,13.775,3.524c3.956,2.351,7.277,5.852,9.964,10.503V64.139h19.423
			V134.71z M188.546,99.315c0-6.33-1.595-11.342-4.783-15.035c-3.19-3.693-7.495-5.539-12.914-5.539
			c-5.563,0-9.939,1.836-13.128,5.504c-3.19,3.67-4.784,8.693-4.784,15.07c0,6.379,1.57,11.344,4.712,14.893
			c3.141,3.549,7.493,5.322,13.057,5.322c5.659,0,10.047-1.773,13.166-5.322C186.987,110.659,188.546,105.694,188.546,99.315z"/>
		<path d="M219.623,122.337l15.755-8.129c0.527,2.732,1.942,4.891,4.245,6.475c2.302,1.582,5.154,2.373,8.56,2.373
			c3.356,0,5.995-0.611,7.913-1.835c1.918-1.222,2.878-2.913,2.878-5.071c0-3.404-3.405-6.258-10.215-8.561
			c-2.111-0.719-3.789-1.318-5.036-1.799c-8.298-3.117-14.04-6.258-17.229-9.424c-3.19-3.165-4.784-7.074-4.784-11.726
			c0-6.906,2.709-12.493,8.129-16.762c5.419-4.269,12.564-6.402,21.438-6.402c6.33,0,11.81,1.271,16.438,3.812
			c4.628,2.543,7.996,6.14,10.107,10.79l-15.035,7.482c-0.815-2.637-2.23-4.641-4.244-6.006c-2.015-1.367-4.532-2.052-7.554-2.052
			c-3.021,0-5.468,0.625-7.338,1.87c-1.869,1.248-2.806,2.878-2.806,4.893c0,3.502,4.652,6.762,13.957,9.783
			c1.103,0.336,1.941,0.602,2.517,0.791c7.722,2.543,13.212,5.504,16.475,8.886c3.261,3.381,4.892,7.687,4.892,12.913
			c0,7.002-2.71,12.564-8.129,16.689c-5.42,4.123-12.733,6.186-21.94,6.186c-7.291,0-13.514-1.354-18.668-4.064
			C224.791,130.741,221.351,127.037,219.623,122.337z"/>
		<path d="M296.238,134.71V80.18h-9.855V64.139h9.855V40.687h20.502v23.452h9.855V80.18h-9.855v54.53H296.238z"/>
		<path d="M359.04,82.267c2.061-6.859,5.022-11.989,8.884-15.396c3.86-3.404,8.644-5.106,14.352-5.106
			c1.296,0,3.428,0.24,6.402,0.72c0.575,0.096,1.008,0.168,1.295,0.215l-3.094,22.014c-1.534-0.624-3.081-1.09-4.639-1.403
			c-1.56-0.311-3.201-0.467-4.928-0.467c-6.235,0-10.72,1.595-13.453,4.783c-2.733,3.19-4.101,8.525-4.101,16.006v31.078h-20.502
			V64.139h20.215L359.04,82.267z"/>
		<path d="M473.493,99.675c0,10.84-3.704,19.855-11.114,27.051c-7.41,7.193-16.798,10.789-28.164,10.789
			c-11.463,0-20.911-3.596-28.344-10.789c-7.435-7.195-11.15-16.211-11.15-27.051c0-10.791,3.74-19.807,11.222-27.048
			c7.482-7.24,16.906-10.862,28.272-10.862c11.413,0,20.813,3.572,28.199,10.719S473.493,88.694,473.493,99.675z M452.631,99.532
			c0-5.756-1.679-10.347-5.035-13.775c-3.358-3.429-7.866-5.145-13.524-5.145c-5.66,0-10.144,1.703-13.453,5.107
			c-3.309,3.406-4.964,8.01-4.964,13.812c0,5.754,1.655,10.359,4.964,13.812c3.31,3.453,7.793,5.18,13.453,5.18
			c5.61,0,10.107-1.727,13.487-5.18C450.94,109.892,452.631,105.286,452.631,99.532z"/>
	</g>
	<g>
		<path d="M499.606,83.704c3.261-5.514,6.462-9.423,9.604-11.726c3.141-2.301,6.798-3.451,10.971-3.451
			c1.247,0,2.505,0.119,3.777,0.359c1.27,0.239,2.528,0.575,3.775,1.006l-2.877,8.345c-0.96-0.287-1.954-0.526-2.984-0.719
			c-1.033-0.191-2.027-0.288-2.986-0.288c-5.324,0-9.868,2.494-13.632,7.482c-3.766,4.987-5.647,11.198-5.647,18.632v31.365h-8.849
			V70.9h8.849V83.704z"/>
		<path d="M591.975,103.058h-50.716c0.239,8.248,2.302,14.723,6.187,19.422c3.885,4.701,9.088,7.051,15.611,7.051
			c4.699,0,8.823-1.27,12.373-3.812c3.549-2.541,6.498-6.377,8.849-11.51l8.128,4.459c-3.261,6.475-7.254,11.235-11.978,14.28
			s-10.515,4.567-17.372,4.567c-9.353,0-16.918-3.128-22.697-9.388c-5.779-6.258-8.668-14.47-8.668-24.638
			c0-10.455,2.864-18.896,8.597-25.323c5.729-6.426,13.225-9.639,22.48-9.639c8.824,0,15.898,2.962,21.222,8.884
			c5.324,5.924,7.984,13.824,7.984,23.703V103.058z M581.473,95.503c-0.432-5.85-2.374-10.383-5.827-13.596s-8.129-4.82-14.027-4.82
			c-5.372,0-9.867,1.68-13.488,5.035c-3.622,3.357-5.72,7.818-6.295,13.381H581.473z"/>
		<path d="M610.392,166.794V70.9h8.561v11.942c2.446-4.605,5.636-8.141,9.568-10.611c3.932-2.469,8.345-3.704,13.236-3.704
			c8.968,0,16.197,3.153,21.689,9.46c5.491,6.307,8.238,14.664,8.238,25.07c0,10.455-2.688,18.812-8.059,25.069
			c-5.371,6.26-12.517,9.388-21.438,9.388c-5.132,0-9.664-1.234-13.596-3.704c-3.934-2.469-7.147-6.103-9.641-10.899v43.883H610.392
			z M662.116,103.2c0-8.248-1.883-14.734-5.647-19.459c-3.766-4.723-8.956-7.086-15.575-7.086c-6.811,0-12.146,2.291-16.006,6.871
			s-5.792,10.875-5.792,18.883c0,8.154,2.075,14.664,6.224,19.531c4.147,4.868,9.627,7.303,16.438,7.303
			c6.427,0,11.426-2.29,14.999-6.87C660.328,117.793,662.116,111.401,662.116,103.2z"/>
		<path d="M698.947,70.9v31.868c0,9.689,1.378,16.523,4.136,20.504c2.759,3.98,7.421,5.971,13.993,5.971
			c6.521,0,11.197-2.016,14.027-6.043c2.829-4.029,4.244-10.838,4.244-20.432V70.9h8.777v36.401c0,9.928-2.279,17.444-6.834,22.553
			c-4.557,5.106-11.247,7.66-20.07,7.66c-8.875,0-15.611-2.554-20.215-7.66c-4.605-5.108-6.906-12.625-6.906-22.553V70.9H698.947z"
			/>
		<path d="M776.568,134.71h-8.847V23.206h8.847v59.348c2.159-4.604,5.192-8.092,9.102-10.467c3.908-2.373,8.57-3.56,13.991-3.56
			c8.729,0,15.851,3.226,21.366,9.675c5.514,6.451,8.273,14.783,8.273,24.998c0,10.312-2.796,18.609-8.382,24.891
			c-5.587,6.284-12.962,9.424-22.122,9.424c-5.132,0-9.591-1.223-13.38-3.668s-6.738-6.043-8.849-10.791V134.71z M819.444,103.489
			c0-8.346-1.942-14.903-5.827-19.676c-3.884-4.771-9.161-7.158-15.826-7.158c-6.668,0-11.896,2.242-15.684,6.727
			c-3.788,4.485-5.683,10.635-5.683,18.451c0,8.537,1.93,15.24,5.791,20.107c3.86,4.868,9.148,7.303,15.862,7.303
			c6.857,0,12.134-2.219,15.826-6.655C817.598,118.152,819.444,111.786,819.444,103.489z"/>
		<path d="M857.14,134.71h-9.136V23.206h9.136V134.71z"/>
		<path d="M879.656,46.01c0-1.871,0.671-3.464,2.015-4.784c1.343-1.318,2.949-1.978,4.82-1.978c1.869,0,3.487,0.659,4.854,1.978
			c1.367,1.32,2.052,2.913,2.052,4.784c0,1.918-0.661,3.525-1.979,4.82c-1.319,1.295-2.962,1.942-4.927,1.942
			c-1.92,0-3.538-0.647-4.856-1.942C880.314,49.535,879.656,47.928,879.656,46.01z M881.887,134.71V70.9h9.136v63.81H881.887z"/>
		<path d="M915.194,134.71V23.206h8.848v75.967L955.838,70.9h12.23l-34.171,28.632l36.688,35.178h-12.23l-34.313-33.02v33.02
			H915.194z"/>
		<path d="M1029.791,134.71v-11.654c-2.111,4.701-5.072,8.286-8.885,10.755c-3.812,2.47-8.309,3.704-13.489,3.704
			c-9.16,0-16.533-3.14-22.121-9.424c-5.586-6.281-8.38-14.578-8.38-24.891c0-10.215,2.758-18.547,8.272-24.998
			c5.515-6.449,12.638-9.675,21.366-9.675c5.419,0,10.108,1.187,14.063,3.56c3.957,2.375,7.014,5.863,9.173,10.467V70.9h8.849v63.81
			H1029.791z M986.771,103.489c0,8.248,1.858,14.604,5.575,19.062c3.717,4.461,9.027,6.691,15.935,6.691
			c6.714,0,12-2.435,15.862-7.303c3.859-4.867,5.792-11.57,5.792-20.107c0-7.816-1.921-13.966-5.756-18.451
			c-3.838-4.484-9.09-6.727-15.755-6.727c-6.667,0-11.942,2.387-15.825,7.158C988.715,88.586,986.771,95.144,986.771,103.489z"/>
	</g>
</g>
</svg>
