<?xml version="1.0" encoding="UTF-8"?>
<svg width="11px" height="10px" viewBox="0 0 11 10" version="1.1" xmlns="http://www.w3.org/2000/svg" xmlns:xlink="http://www.w3.org/1999/xlink">
    <!-- Generator: Sketch 49 (51002) - http://www.bohemiancoding.com/sketch -->
    <title>Shape</title>
    <desc>Created with Sketch.</desc>
    <defs></defs>
    <g id="Page-1" stroke="none" stroke-width="1" fill="none" fill-rule="evenodd">
        <g id="Home" transform="translate(-428.000000, -3592.000000)" fill="#FFFFFF" fill-rule="nonzero">
            <g id="footer" transform="translate(0.000000, 3336.000000)">
                <path class="hcc-phone" d="M438.443511,263.091564 C438.170669,262.958915 436.843612,262.318346 436.592829,262.233315 C436.346691,262.142615 436.112117,262.17436 435.926352,262.430633 C435.66512,262.787764 435.408579,263.150564 435.200708,263.369333 C435.037049,263.539396 434.770012,263.560982 434.545887,263.470282 C434.24518,263.347837 433.404595,263.059864 432.367795,262.158533 C431.564362,261.460142 431.018678,260.590556 430.860778,260.329793 C430.702878,260.063362 430.844523,259.909172 430.969915,259.765185 C431.106916,259.599658 431.236952,259.481748 431.373953,259.327558 C431.510955,259.173368 431.587583,259.092871 431.67466,258.911471 C431.767542,258.73574 431.701364,258.55434 431.635185,258.420557 C431.570167,258.286775 431.024483,256.985229 430.800404,256.458035 C430.620445,256.037414 430.483443,256.021541 430.210601,256.010204 C430.117719,256.005669 430.014387,256 429.899445,256 C429.54417,256 429.173801,256.102038 428.949723,256.325386 C428.67688,256.597487 428,257.231253 428,258.532799 C428,259.834344 428.971782,261.092807 429.102978,261.268539 C429.23998,261.44427 430.997779,264.1528 433.727361,265.257028 C435.861334,266.120991 436.495256,266.040449 436.980567,265.939591 C437.689956,265.78989 438.579305,265.277435 438.803384,264.659541 C439.027463,264.040559 439.027463,263.513365 438.962445,263.401078 C438.896313,263.288837 438.716353,263.225347 438.443511,263.091564 Z" id="Shape"></path>
            </g>
        </g>
    </g>
</svg>