<?xml version="1.0" encoding="UTF-8"?>
<svg width="10px" height="10px" viewBox="0 0 10 10" version="1.1" xmlns="http://www.w3.org/2000/svg" xmlns:xlink="http://www.w3.org/1999/xlink">
    <!-- Generator: Sketch 49 (51002) - http://www.bohemiancoding.com/sketch -->
    <title>star copy 3</title>
    <desc>Created with Sketch.</desc>
    <defs></defs>
    <g id="Page-1" stroke="none" stroke-width="1" fill="none" fill-rule="evenodd">
        <g id="Home" transform="translate(-231.000000, -1182.000000)" fill="#1CC8CB" fill-rule="nonzero">
            <g id="Group" transform="translate(186.000000, 1182.000000)">
                <path d="M45,3.98439775 C45,3.91927072 45,3.85420252 45,3.78907548 C45.0665096,3.6878256 45.1369021,3.59501811 45.2705978,3.57480931 C46.256887,3.42578783 47.2427644,3.27403067 48.2292301,3.12603875 C48.3078002,3.11424294 48.3521302,3.08497401 48.3869587,3.01019853 C48.8036658,2.11512836 49.225962,1.22267621 49.6426397,0.327576621 C49.7067666,0.189792058 49.7715112,0.0605381364 49.9219152,0 C49.9674512,0 50.013046,0 50.058582,0 C50.2068092,0.0459772144 50.2787608,0.158611094 50.341358,0.293365809 C50.7640366,1.20305573 51.1933632,2.10962756 51.6171595,3.01881742 C51.6490465,3.08723904 51.6901995,3.11388994 51.7608273,3.1244797 C52.7211422,3.26858871 53.6808099,3.4169042 54.6414483,3.558807 C54.8083547,3.58345762 54.9351083,3.64679027 55,3.80863713 C55,3.86720439 55,3.92580107 55,3.98442717 C54.9514636,4.04408282 54.908781,4.10776847 54.8542731,4.1635118 C54.1464652,4.88705725 53.4403046,5.61219117 52.7334086,6.33664852 C52.7013158,6.36950619 52.6765769,6.39633359 52.6860489,6.45301823 C52.8192151,7.25151566 52.9485573,8.05057199 53.0788996,8.84954008 C53.1191995,9.09657568 53.1611762,9.34337596 53.1997406,9.59070572 C53.2334219,9.80638386 53.1248768,9.96461255 52.9294957,9.98991031 C52.8441305,10.0009707 52.7712965,9.96740707 52.6989037,9.92734247 C51.8314845,9.4471262 50.9630358,8.9686749 50.0968228,8.48628185 C50.0254301,8.44651141 49.9753053,8.44712915 49.9038244,8.48689958 C49.0374936,8.96905731 48.1688685,9.44706737 47.301214,9.92687181 C47.22888,9.96684816 47.1561049,10.0007648 47.0707102,9.98973381 C46.8682104,9.96352415 46.7651367,9.80000059 46.8025539,9.57134999 C46.9716959,8.53828934 47.1388671,7.50490512 47.310333,6.4722563 C47.3210992,6.40751167 47.3023318,6.37106524 47.2608847,6.32873561 C46.7666664,5.82425114 46.2715656,5.32059032 45.7817009,4.81186995 C45.5186042,4.53850702 45.2357693,4.28358793 45,3.98439775 Z" id="star-copy-3"></path>
            </g>
        </g>
    </g>
</svg>