<?xml version="1.0" encoding="UTF-8"?>
<svg width="29px" height="26px" viewBox="0 0 29 26" version="1.1" xmlns="http://www.w3.org/2000/svg" xmlns:xlink="http://www.w3.org/1999/xlink">
    <!-- Generator: Sketch 49 (51002) - http://www.bohemiancoding.com/sketch -->
    <title>thumbs up</title>
    <desc>Created with Sketch.</desc>
    <defs></defs>
    <g id="Page-1" stroke="none" stroke-width="1" fill="none" fill-rule="evenodd">
        <g id="Home" transform="translate(-942.000000, -1495.000000)" fill="#FFBC1E" fill-rule="nonzero">
            <g id="menu" transform="translate(-1.000000, 1278.000000)">
                <path d="M960.920796,225.027272 C961.076657,225.027272 961.181399,225.027272 961.28614,225.027272 C963.491876,225.027932 965.697446,225.021987 967.903266,225.032474 C968.862449,225.037016 969.759087,225.285079 970.519295,225.883106 C971.772186,226.868836 972.178392,228.169681 971.931049,229.710332 C971.398003,233.02888 970.869627,236.348254 970.351008,239.669114 C970.059217,241.537763 968.481678,242.97032 966.571235,242.983863 C962.918218,243.00971 959.265118,242.99914 955.611935,242.988983 C954.724136,242.986753 953.954588,242.608383 953.24008,242.119688 C952.932861,241.909693 952.535662,241.730004 952.377633,241.433138 C952.226442,241.14907 952.326513,240.730732 952.32643,240.371354 C952.325012,235.837429 952.327264,231.303338 952.320259,226.76933 C952.319925,226.54893 952.387306,226.428284 952.573105,226.303839 C954.481213,225.026198 955.503941,223.247723 955.577827,220.961561 C955.608349,220.016708 955.584081,219.07012 955.586333,218.124276 C955.588084,217.419063 956.009051,217.015506 956.726978,217.002376 C957.509785,216.988007 958.2795,217.031856 959.017859,217.32798 C961.007025,218.125762 962.087377,220.064685 961.761895,222.20964 C961.615207,223.175385 961.416649,224.119826 960.920796,225.027272 Z M949.784454,234.240872 C949.784454,236.22959 949.785371,238.218307 949.78412,240.207025 C949.783453,241.388793 948.998394,242.164197 947.804545,242.165106 C946.839775,242.165932 945.874921,242.167666 944.910151,242.16461 C943.818791,242.161142 943.004295,241.363772 943.003127,240.280354 C942.998958,236.26386 942.998958,232.247448 943.003127,228.231119 C943.004211,227.166858 943.776761,226.374856 944.851359,226.353469 C945.874754,226.332989 946.899234,226.334476 947.922712,226.352478 C949.014406,226.371718 949.781869,227.162895 949.783536,228.24557 C949.786705,230.243949 949.78437,232.242411 949.784454,234.240872 Z" id="thumbs-up"></path>
            </g>
        </g>
    </g>
</svg>