<?xml version="1.0" encoding="UTF-8"?>
<svg width="17px" height="17px" viewBox="0 0 17 17" version="1.1" xmlns="http://www.w3.org/2000/svg" xmlns:xlink="http://www.w3.org/1999/xlink">
    <!-- Generator: Sketch 49 (51002) - http://www.bohemiancoding.com/sketch -->
    <title>waze</title>
    <desc>Created with Sketch.</desc>
    <defs></defs>
    <g id="Page-1" stroke="none" stroke-width="1" fill="none" fill-rule="evenodd">
        <g id="Home" transform="translate(-571.000000, -3639.000000)" fill="#FFFFFF" fill-rule="nonzero">
            <g id="footer" transform="translate(0.000000, 3336.000000)">
                <g id="waze" transform="translate(571.000000, 303.000000)">
                    <path class="hcc-waze" d="M9.37847437,0.000334262678 C12.5850054,-0.0298382629 15.4481557,1.98512863 16.5394487,5.03958974 C17.6570487,8.16796086 16.7047521,11.5256051 14.0725459,13.6289344 C13.713166,13.9162707 13.5451434,14.1620246 13.6065472,14.6584134 C13.7365007,15.7122332 13.0417081,16.6258396 11.9955035,16.9228741 C11.056803,17.1889121 9.94249145,16.7296685 9.53410236,15.7579991 C9.24194416,15.0629534 8.73300712,15.330069 8.28003545,15.2640191 C7.88106877,15.205956 7.66504878,15.3465498 7.48760378,15.7414549 C7.08813121,16.6303401 6.11249991,17.1232425 5.2243896,16.9733941 C4.29650277,16.8166364 3.52443364,16.095475 3.43235954,15.1203827 C3.38056786,14.5718259 3.11155467,14.3267058 2.70607451,14.0720776 C1.64545174,13.405176 0.799773928,12.5223127 0.233670003,11.3952167 C-0.184647409,10.5623663 -0.0660134762,10.3142036 0.790730936,10.0443623 C1.38624039,9.85705181 1.65866842,9.43805938 1.67763973,8.80798605 C1.70337748,7.95352041 1.67732355,7.08181333 1.83895912,6.24985031 C2.57131497,2.47910866 5.55189766,0.0364018405 9.37847437,0.000334262678 Z M1.00143897,10.9455447 C1.59935146,12.1173289 2.45609587,12.9335718 3.52633077,13.5313174 C3.62934499,13.5886833 3.88773425,13.4797833 4.00946683,13.3739259 C5.27618128,12.2703467 6.77813998,12.5729594 7.53319817,14.0785431 C7.61003198,14.2318778 7.8356641,14.4061305 7.99274656,14.4064475 C8.77910741,14.4081589 9.5742583,14.4191884 10.3500584,14.3109223 C13.7536381,13.836846 16.3097061,10.7104399 16.112531,7.31450943 C15.9057437,3.75839839 13.0310209,0.929280401 9.53637891,0.842756247 C5.72282918,0.748372023 2.57580484,3.8086648 2.57441361,7.64976675 C2.573718,8.99909985 2.67540423,10.3559127 1.00143897,10.9455447 Z" id="Shape"></path>
                    <path class="hcc-waze" d="M9.89432969,11 C8.73331484,10.9290084 7.67366862,10.5428144 7.0437946,9.60686166 C6.94011189,9.45243566 7.05144385,9.20455895 7.06372122,9 C7.29062756,9.08818442 7.6031541,9.12752665 7.73139154,9.2722978 C8.98760422,10.6886697 11.002314,10.675091 12.2617407,9.24343651 C12.3834216,9.10542892 12.7106681,9.08426053 12.9427168,9.00882877 C12.9538372,9.1993443 13.053406,9.42486512 12.961165,9.57438625 C12.4496294,10.40491 11.1984948,10.9893642 9.89432969,11 Z" id="Shape"></path>
                    <path class="hcc-waze" d="M13.9992925,5.93973422 C14.0206525,6.47694331 13.5552507,6.98138265 13.0215583,6.99949427 C12.4812054,7.01760589 11.98518,6.54670375 12.0003387,5.9963714 C12.0167223,5.40444373 12.3330638,5.05387642 12.9292283,5.00383923 C13.5094685,4.95510669 13.9768608,5.37604839 13.9992925,5.93973422 Z" id="Shape"></path>
                    <path class="hcc-waze" d="M8.02172944,5 C8.58878608,5.03201434 8.98359451,5.34513774 8.99950254,5.97045883 C9.01518223,6.58752562 8.65942079,6.97694344 8.0423566,6.99908348 C7.4191271,7.02160923 7.07615298,6.62694569 7.00536604,6.03279037 C6.94257118,5.50675231 7.43998261,5.0138086 8.02172944,5 Z" id="Shape"></path>
                </g>
            </g>
        </g>
    </g>
</svg>